<svg id="Layer_1" enable-background="new 0 0 512 512" height="512" viewBox="0 0 512 512" width="512" xmlns="http://www.w3.org/2000/svg"><g><path d="m316.212 197.135c5.085 0 9.57 2.536 12.283 6.406-1.593-13.737-7.013-26.315-15.165-36.653.841 4.672-.535 9.666-4.147 13.277-5.858 5.858-15.355 5.858-21.213 0s-5.858-15.355 0-21.213c3.623-3.623 8.637-4.999 13.323-4.14-10.391-8.247-23.063-13.726-36.91-15.317 3.988 2.701 6.617 7.267 6.617 12.428 0 8.262-6.738 15-15 15s-15-6.738-15-15c0-5.161 2.63-9.727 6.617-12.428-13.846 1.591-26.518 7.07-36.909 15.317 4.685-.858 9.699.518 13.322 4.14 5.858 5.858 5.858 15.355 0 21.213s-15.355 5.858-21.213 0c-3.611-3.611-4.988-8.604-4.147-13.276-8.152 10.337-13.571 22.915-15.164 36.651 2.713-3.869 7.198-6.405 12.282-6.405 8.284 0 15 6.716 15 15s-6.716 15-15 15c-5.059 0-9.524-2.512-12.241-6.349 1.638 13.581 7.015 26.02 15.075 36.264-.719-4.576.669-9.419 4.195-12.945 5.858-5.858 15.355-5.858 21.213 0s5.858 15.355 0 21.213c-3.514 3.514-8.337 4.904-12.899 4.201 10.201 7.975 22.562 13.297 36.051 14.929-3.737-2.733-6.181-7.136-6.181-12.102 0-8.261 6.738-15 15-15s15 6.739 15 15c0 4.966-2.445 9.369-6.181 12.102 13.489-1.633 25.85-6.954 36.051-14.929-4.563.703-9.386-.687-12.9-4.201-5.858-5.858-5.858-15.355 0-21.213s15.355-5.858 21.213 0c3.526 3.526 4.914 8.369 4.195 12.946 8.061-10.244 13.438-22.683 15.076-36.265-2.717 3.837-7.182 6.35-12.241 6.35-8.284 0-15-6.715-15-15-.002-8.285 6.714-15.001 14.998-15.001zm-60.212 29.865c-8.262 0-15-6.738-15-15 0-8.261 6.738-15 15-15s15 6.738 15 15c0 8.261-6.738 15-15 15z"/><path d="m256 0c-116.897 0-212 95.103-212 212 0 46.54 14.8 90.712 42.8 127.738 25.868 34.209 62.142 60.169 102.646 73.582l53.621 91.277c2.694 4.587 7.615 7.403 12.933 7.403s10.239-2.816 12.934-7.402l53.621-91.277c40.504-13.413 76.778-39.373 102.646-73.582 27.999-37.027 42.799-81.199 42.799-127.739 0-116.897-95.103-212-212-212zm147 226.732c0 8.284-6.716 15-15 15-8.194 0-14.842-6.573-14.987-14.732h-15.108c-2.523 17.215-9.316 33.061-19.272 46.42l10.714 10.714c5.872-5.668 15.22-5.616 21.015.179 5.857 5.858 5.857 15.355 0 21.213l-10.411 10.41c-.002.002-.004.005-.007.008s-.005.004-.008.007l-10.41 10.41c-2.929 2.929-6.768 4.394-10.606 4.394-3.839 0-7.677-1.464-10.606-4.394-5.794-5.794-5.847-15.143-.179-21.014l-10.714-10.714c-13.36 9.956-29.205 16.749-46.42 19.271v15.108c8.16.144 14.733 6.792 14.733 14.987 0 8.284-6.716 15-15 15h-29.466c-8.284 0-15-6.716-15-15 0-8.194 6.573-14.843 14.733-14.987v-15.108c-17.215-2.523-33.06-9.316-46.42-19.271l-10.714 10.714c5.668 5.871 5.615 15.221-.179 21.014-2.929 2.929-6.768 4.394-10.606 4.394s-7.677-1.465-10.606-4.394l-10.41-10.41c-.002-.002-.005-.004-.008-.007s-.004-.005-.007-.008l-10.411-10.41c-5.858-5.857-5.858-15.354 0-21.213 5.795-5.794 15.144-5.847 21.015-.179l10.714-10.714c-9.956-13.359-16.749-29.205-19.271-46.42h-15.109c-.144 8.159-6.793 14.732-14.987 14.732-8.284 0-15-6.716-15-15v-29.465c0-8.284 6.716-15 15-15 8.194 0 14.842 6.573 14.987 14.732h15.109c2.523-17.215 9.316-33.061 19.271-46.42l-10.714-10.714c-2.903 2.803-6.653 4.214-10.408 4.214-3.839 0-7.677-1.465-10.606-4.394-5.858-5.857-5.858-15.354 0-21.213l20.835-20.836c5.858-5.857 15.355-5.857 21.213 0 5.794 5.794 5.847 15.143.179 21.015l10.714 10.714c13.36-9.956 29.205-16.749 46.42-19.272v-15.106c-8.16-.144-14.733-6.792-14.733-14.987 0-8.284 6.716-15 15-15h29.466c8.284 0 15 6.716 15 15 0 8.194-6.573 14.843-14.733 14.987v15.108c17.215 2.523 33.061 9.316 46.421 19.272l10.714-10.714c-5.668-5.872-5.615-15.221.179-21.015 5.858-5.858 15.355-5.858 21.213 0l20.835 20.836c5.857 5.858 5.857 15.355 0 21.213-2.929 2.929-6.768 4.394-10.606 4.394-3.756 0-7.504-1.411-10.408-4.214l-10.714 10.714c9.956 13.36 16.749 29.206 19.271 46.421h15.108c.144-8.159 6.793-14.732 14.987-14.732 8.284 0 15 6.716 15 15v29.462z"/></g></svg>