<svg id="Layer_1" enable-background="new 0 0 512 512" height="512" viewBox="0 0 512 512" width="512" xmlns="http://www.w3.org/2000/svg"><g><g><g><path d="m256 512c-5.318 0-10.239-2.816-12.934-7.402l-53.621-91.277c-40.504-13.413-76.778-39.373-102.646-73.582-27.999-37.027-42.799-81.199-42.799-127.739 0-116.897 95.103-212 212-212s212 95.103 212 212c0 46.54-14.8 90.712-42.8 127.738-25.868 34.209-62.142 60.169-102.646 73.582l-53.621 91.277c-2.694 4.587-7.615 7.403-12.933 7.403z" fill="#fff4f4"/></g></g><path d="m256 0v512c5.318 0 10.239-2.816 12.933-7.402l53.621-91.277c40.504-13.413 76.778-39.373 102.646-73.582 28-37.027 42.8-81.199 42.8-127.739 0-116.897-95.103-212-212-212z" fill="#f6efea"/><path clip-rule="evenodd" d="m388 182.268c-8.194 0-14.842 6.573-14.987 14.732h-80.8l57.134-57.134c2.904 2.804 6.652 4.214 10.408 4.214 3.838 0 7.678-1.465 10.606-4.394 5.858-5.857 5.858-15.354 0-21.213l-20.835-20.836c-5.858-5.858-15.355-5.858-21.213 0-5.794 5.794-5.847 15.143-.179 21.015l-57.134 57.135v-80.8c8.16-.144 14.733-6.792 14.733-14.987 0-8.284-6.716-15-15-15h-29.466c-8.284 0-15 6.716-15 15 0 8.194 6.573 14.843 14.733 14.987v80.801l-57.135-57.135c5.668-5.872 5.615-15.221-.179-21.015-5.858-5.857-15.355-5.857-21.213 0l-20.835 20.836c-5.857 5.858-5.857 15.355 0 21.213 2.929 2.929 6.768 4.394 10.606 4.394 3.755 0 7.505-1.412 10.408-4.214l57.135 57.133h-80.8c-.144-8.159-6.793-14.732-14.987-14.732-8.284 0-15 6.716-15 15v29.465c0 8.284 6.716 15 15 15 8.194 0 14.842-6.573 14.987-14.732h80.8l-57.134 57.134c-5.871-5.668-15.22-5.615-21.015.179-5.857 5.858-5.857 15.355 0 21.213l10.411 10.41c.002.002.004.005.007.008s.005.004.008.007l10.41 10.41c2.929 2.929 6.768 4.394 10.606 4.394s7.678-1.465 10.606-4.394c5.794-5.794 5.847-15.143.179-21.014l57.135-57.135v80.8c-8.16.144-14.733 6.792-14.733 14.987 0 8.284 6.716 15 15 15h29.466c8.284 0 15-6.716 15-15 0-8.194-6.573-14.843-14.733-14.987v-80.8l57.134 57.134c-5.668 5.871-5.615 15.221.179 21.014 2.929 2.93 6.767 4.394 10.606 4.394 3.838 0 7.678-1.465 10.606-4.394l10.41-10.41c.002-.002.005-.004.008-.007s.004-.005.007-.008l10.411-10.41c5.858-5.857 5.858-15.354 0-21.213-5.795-5.796-15.144-5.847-21.015-.179l-57.133-57.134h80.8c.144 8.159 6.793 14.732 14.987 14.732 8.284 0 15-6.716 15-15v-29.465c0-8.284-6.716-14.999-15-14.999z" fill="#ff435b" fill-rule="evenodd"/><path clip-rule="evenodd" d="m388 182.268c-8.194 0-14.842 6.573-14.987 14.732h-80.8l57.134-57.134c2.904 2.804 6.652 4.214 10.408 4.214 3.838 0 7.678-1.465 10.606-4.394 5.858-5.857 5.858-15.354 0-21.213l-20.835-20.836c-5.858-5.858-15.355-5.858-21.213 0-5.794 5.794-5.847 15.143-.179 21.015l-57.134 57.135v-80.8c8.16-.144 14.733-6.792 14.733-14.987 0-8.284-6.716-15-15-15h-14.733v293.999h14.733c8.284 0 15-6.716 15-15 0-8.194-6.573-14.843-14.733-14.987v-80.8l57.134 57.134c-5.668 5.871-5.615 15.221.179 21.014 2.929 2.93 6.767 4.394 10.606 4.394 3.838 0 7.678-1.465 10.606-4.394l10.41-10.41c.002-.002.005-.004.008-.007s.004-.005.007-.008l10.411-10.41c5.858-5.857 5.858-15.354 0-21.213-5.795-5.796-15.144-5.847-21.015-.179l-57.133-57.133h80.8c.144 8.159 6.793 14.732 14.987 14.732 8.284 0 15-6.716 15-15v-29.465c0-8.284-6.716-14.999-15-14.999z" fill="#cc2e43" fill-rule="evenodd"/><g><g><path d="m256 315c-56.794 0-103-46.206-103-103 0-56.795 46.206-103.001 103-103.001s103 46.206 103 103.001c0 56.794-46.205 103-103 103z" fill="#ff8856"/></g></g><path d="m256 108.999v206.001c56.794 0 103-46.206 103-103 0-56.795-46.205-103.001-103-103.001z" fill="#ff435b"/><g><path clip-rule="evenodd" d="m256 166.923c8.262 0 15-6.738 15-15s-6.738-15-15-15-15 6.738-15 15 6.738 15 15 15z" fill="#ffde46" fill-rule="evenodd"/></g><g><path clip-rule="evenodd" d="m256 287.347c8.262 0 15-6.738 15-15 0-8.261-6.738-15-15-15s-15 6.738-15 15c0 8.261 6.738 15 15 15z" fill="#ffde46" fill-rule="evenodd"/></g><g><circle clip-rule="evenodd" cx="316.212" cy="212.135" fill="#ffcd00" fill-rule="evenodd" r="15"/></g><g><circle clip-rule="evenodd" cx="195.788" cy="212.135" fill="#ffde46" fill-rule="evenodd" r="15"/></g><g><path clip-rule="evenodd" d="m309.183 265.318c-5.858 5.858-15.355 5.858-21.213 0s-5.858-15.355 0-21.213 15.355-5.858 21.213 0 5.858 15.355 0 21.213z" fill="#ffcd00" fill-rule="evenodd"/></g><g><path clip-rule="evenodd" d="m224.03 180.165c-5.858 5.858-15.355 5.858-21.213 0s-5.858-15.355 0-21.213 15.355-5.858 21.213 0 5.858 15.356 0 21.213z" fill="#ffde46" fill-rule="evenodd"/></g><g><path clip-rule="evenodd" d="m309.183 158.952c5.858 5.858 5.858 15.355 0 21.213s-15.355 5.858-21.213 0-5.858-15.355 0-21.213c5.857-5.858 15.355-5.858 21.213 0z" fill="#ffcd00" fill-rule="evenodd"/></g><g><path clip-rule="evenodd" d="m224.03 244.105c5.858 5.858 5.858 15.355 0 21.213s-15.355 5.858-21.213 0-5.858-15.355 0-21.213 15.356-5.858 21.213 0z" fill="#ffde46" fill-rule="evenodd"/></g><g clip-rule="evenodd" fill-rule="evenodd"><path d="m256 227c8.262 0 15-6.738 15-15s-6.738-15-15-15-15 6.738-15 15 6.738 15 15 15z" fill="#ffde46"/><path d="m256 136.923v30c8.262 0 15-6.738 15-15s-6.738-15-15-15z" fill="#ffcd00"/><path d="m256 197v30c8.262 0 15-6.738 15-15s-6.738-15-15-15z" fill="#ffcd00"/><path d="m256 257.347v30c8.262 0 15-6.739 15-15 0-8.262-6.738-15-15-15z" fill="#ffcd00"/></g></g></svg>